<?xml version="1.0" standalone="no"?>
<svg xmlns:xlink="http://www.w3.org/1999/xlink" id="wave" style="transform:rotate(0deg); transition: 0.3s" viewBox="0 0 1440 490" version="1.1" xmlns="http://www.w3.org/2000/svg"><defs><linearGradient id="sw-gradient-0" x1="0" x2="0" y1="1" y2="0"><stop stop-color="rgba(100.146, 208.474, 255, 1)" offset="0%"/><stop stop-color="rgba(7, 100, 219, 1)" offset="100%"/></linearGradient></defs><path style="transform:translate(0, 0px); opacity:1" fill="url(#sw-gradient-0)" d="M0,98L80,130.7C160,163,320,229,480,212.3C640,196,800,98,960,122.5C1120,147,1280,294,1440,334.8C1600,376,1760,310,1920,277.7C2080,245,2240,245,2400,245C2560,245,2720,245,2880,228.7C3040,212,3200,180,3360,212.3C3520,245,3680,343,3840,334.8C4000,327,4160,212,4320,204.2C4480,196,4640,294,4800,302.2C4960,310,5120,229,5280,204.2C5440,180,5600,212,5760,196C5920,180,6080,114,6240,106.2C6400,98,6560,147,6720,204.2C6880,261,7040,327,7200,359.3C7360,392,7520,392,7680,343C7840,294,8000,196,8160,179.7C8320,163,8480,229,8640,253.2C8800,278,8960,261,9120,285.8C9280,310,9440,376,9600,392C9760,408,9920,376,10080,302.2C10240,229,10400,114,10560,81.7C10720,49,10880,98,11040,98C11200,98,11360,49,11440,24.5L11520,0L11520,490L11440,490C11360,490,11200,490,11040,490C10880,490,10720,490,10560,490C10400,490,10240,490,10080,490C9920,490,9760,490,9600,490C9440,490,9280,490,9120,490C8960,490,8800,490,8640,490C8480,490,8320,490,8160,490C8000,490,7840,490,7680,490C7520,490,7360,490,7200,490C7040,490,6880,490,6720,490C6560,490,6400,490,6240,490C6080,490,5920,490,5760,490C5600,490,5440,490,5280,490C5120,490,4960,490,4800,490C4640,490,4480,490,4320,490C4160,490,4000,490,3840,490C3680,490,3520,490,3360,490C3200,490,3040,490,2880,490C2720,490,2560,490,2400,490C2240,490,2080,490,1920,490C1760,490,1600,490,1440,490C1280,490,1120,490,960,490C800,490,640,490,480,490C320,490,160,490,80,490L0,490Z"/><defs><linearGradient id="sw-gradient-1" x1="0" x2="0" y1="1" y2="0"><stop stop-color="rgba(16, 147, 244, 1)" offset="0%"/><stop stop-color="rgba(16, 147, 244, 1)" offset="100%"/></linearGradient></defs><path style="transform:translate(0, 50px); opacity:0.9" fill="url(#sw-gradient-1)" d="M0,0L80,8.2C160,16,320,33,480,98C640,163,800,278,960,318.5C1120,359,1280,327,1440,310.3C1600,294,1760,294,1920,261.3C2080,229,2240,163,2400,171.5C2560,180,2720,261,2880,294C3040,327,3200,310,3360,318.5C3520,327,3680,359,3840,359.3C4000,359,4160,327,4320,294C4480,261,4640,229,4800,179.7C4960,131,5120,65,5280,57.2C5440,49,5600,98,5760,171.5C5920,245,6080,343,6240,326.7C6400,310,6560,180,6720,171.5C6880,163,7040,278,7200,302.2C7360,327,7520,261,7680,228.7C7840,196,8000,196,8160,163.3C8320,131,8480,65,8640,106.2C8800,147,8960,294,9120,367.5C9280,441,9440,441,9600,383.8C9760,327,9920,212,10080,155.2C10240,98,10400,98,10560,114.3C10720,131,10880,163,11040,163.3C11200,163,11360,131,11440,114.3L11520,98L11520,490L11440,490C11360,490,11200,490,11040,490C10880,490,10720,490,10560,490C10400,490,10240,490,10080,490C9920,490,9760,490,9600,490C9440,490,9280,490,9120,490C8960,490,8800,490,8640,490C8480,490,8320,490,8160,490C8000,490,7840,490,7680,490C7520,490,7360,490,7200,490C7040,490,6880,490,6720,490C6560,490,6400,490,6240,490C6080,490,5920,490,5760,490C5600,490,5440,490,5280,490C5120,490,4960,490,4800,490C4640,490,4480,490,4320,490C4160,490,4000,490,3840,490C3680,490,3520,490,3360,490C3200,490,3040,490,2880,490C2720,490,2560,490,2400,490C2240,490,2080,490,1920,490C1760,490,1600,490,1440,490C1280,490,1120,490,960,490C800,490,640,490,480,490C320,490,160,490,80,490L0,490Z"/></svg>