<?xml version="1.0" standalone="no"?>
<svg xmlns:xlink="http://www.w3.org/1999/xlink" id="wave" style="transform:rotate(180deg); transition: 0.3s" viewBox="0 0 1440 490" version="1.1" xmlns="http://www.w3.org/2000/svg"><defs><linearGradient id="sw-gradient-0" x1="0" x2="0" y1="1" y2="0"><stop stop-color="rgba(16, 147, 244, 1)" offset="0%"/><stop stop-color="rgba(0, 76.118, 132.48, 1)" offset="100%"/></linearGradient></defs><path style="transform:translate(0, 0px); opacity:1" fill="url(#sw-gradient-0)" d="M0,98L80,89.8C160,82,320,65,480,57.2C640,49,800,49,960,98C1120,147,1280,245,1440,302.2C1600,359,1760,376,1920,334.8C2080,294,2240,196,2400,196C2560,196,2720,294,2880,294C3040,294,3200,196,3360,196C3520,196,3680,294,3840,302.2C4000,310,4160,229,4320,220.5C4480,212,4640,278,4800,277.7C4960,278,5120,212,5280,220.5C5440,229,5600,310,5760,285.8C5920,261,6080,131,6240,106.2C6400,82,6560,163,6720,163.3C6880,163,7040,82,7200,89.8C7360,98,7520,196,7680,253.2C7840,310,8000,327,8160,285.8C8320,245,8480,147,8640,138.8C8800,131,8960,212,9120,228.7C9280,245,9440,196,9600,155.2C9760,114,9920,82,10080,65.3C10240,49,10400,49,10560,40.8C10720,33,10880,16,11040,32.7C11200,49,11360,98,11440,122.5L11520,147L11520,490L11440,490C11360,490,11200,490,11040,490C10880,490,10720,490,10560,490C10400,490,10240,490,10080,490C9920,490,9760,490,9600,490C9440,490,9280,490,9120,490C8960,490,8800,490,8640,490C8480,490,8320,490,8160,490C8000,490,7840,490,7680,490C7520,490,7360,490,7200,490C7040,490,6880,490,6720,490C6560,490,6400,490,6240,490C6080,490,5920,490,5760,490C5600,490,5440,490,5280,490C5120,490,4960,490,4800,490C4640,490,4480,490,4320,490C4160,490,4000,490,3840,490C3680,490,3520,490,3360,490C3200,490,3040,490,2880,490C2720,490,2560,490,2400,490C2240,490,2080,490,1920,490C1760,490,1600,490,1440,490C1280,490,1120,490,960,490C800,490,640,490,480,490C320,490,160,490,80,490L0,490Z"/><defs><linearGradient id="sw-gradient-1" x1="0" x2="0" y1="1" y2="0"><stop stop-color="rgba(16, 147, 244, 1)" offset="0%"/><stop stop-color="rgba(16, 147, 244, 1)" offset="100%"/></linearGradient></defs><path style="transform:translate(0, 50px); opacity:0.9" fill="url(#sw-gradient-1)" d="M0,294L80,318.5C160,343,320,392,480,392C640,392,800,343,960,294C1120,245,1280,196,1440,212.3C1600,229,1760,310,1920,343C2080,376,2240,359,2400,294C2560,229,2720,114,2880,106.2C3040,98,3200,196,3360,261.3C3520,327,3680,359,3840,326.7C4000,294,4160,196,4320,130.7C4480,65,4640,33,4800,40.8C4960,49,5120,98,5280,163.3C5440,229,5600,310,5760,294C5920,278,6080,163,6240,147C6400,131,6560,212,6720,228.7C6880,245,7040,196,7200,187.8C7360,180,7520,212,7680,212.3C7840,212,8000,180,8160,138.8C8320,98,8480,49,8640,89.8C8800,131,8960,261,9120,318.5C9280,376,9440,359,9600,294C9760,229,9920,114,10080,98C10240,82,10400,163,10560,171.5C10720,180,10880,114,11040,114.3C11200,114,11360,180,11440,212.3L11520,245L11520,490L11440,490C11360,490,11200,490,11040,490C10880,490,10720,490,10560,490C10400,490,10240,490,10080,490C9920,490,9760,490,9600,490C9440,490,9280,490,9120,490C8960,490,8800,490,8640,490C8480,490,8320,490,8160,490C8000,490,7840,490,7680,490C7520,490,7360,490,7200,490C7040,490,6880,490,6720,490C6560,490,6400,490,6240,490C6080,490,5920,490,5760,490C5600,490,5440,490,5280,490C5120,490,4960,490,4800,490C4640,490,4480,490,4320,490C4160,490,4000,490,3840,490C3680,490,3520,490,3360,490C3200,490,3040,490,2880,490C2720,490,2560,490,2400,490C2240,490,2080,490,1920,490C1760,490,1600,490,1440,490C1280,490,1120,490,960,490C800,490,640,490,480,490C320,490,160,490,80,490L0,490Z"/></svg>