<svg width="28" height="28" viewBox="0 0 28 28" fill="none" xmlns="http://www.w3.org/2000/svg">
<circle cx="14" cy="14" r="14" fill="#999999" fill-opacity="0.65"/>
<g clip-path="url(#clip0)">
<path d="M15.4506 21.3867L14.5496 22.2539C14.1681 22.6211 13.5512 22.6211 13.1738 22.2539L5.28417 14.6641C4.90267 14.2969 4.90267 13.7031 5.28417 13.3398L13.1738 5.74609C13.5553 5.37891 14.1722 5.37891 14.5496 5.74609L15.4506 6.61328C15.8361 6.98438 15.828 7.58984 15.4343 7.95312L10.5439 12.4375H22.2079C22.7476 12.4375 23.1819 12.8555 23.1819 13.375V14.625C23.1819 15.1445 22.7476 15.5625 22.2079 15.5625H10.5439L15.4343 20.0469C15.8321 20.4102 15.8402 21.0156 15.4506 21.3867Z" fill="white"/>
</g>
<defs>
<clipPath id="clip0">
<rect width="18.1818" height="20" fill="white" transform="translate(5 4)"/>
</clipPath>
</defs>
</svg>
